<svg width="28" height="28" viewBox="0 0 28 28" fill="none" xmlns="http://www.w3.org/2000/svg">
<g clip-path="url(#clip0_1_4987)">
<path d="M10.9838 10.0119C11.3042 9.69148 11.3042 9.17233 10.9838 8.85192L5.18398 3.05127C4.87636 2.74365 4.33162 2.74365 4.024 3.05127L1.70361 5.37161L4.91639 9.9542L8.66336 12.3323L10.9838 10.0119Z" fill="#7FE881"/>
<path d="M24.9049 22.7732L19.105 16.9725C18.7846 16.6521 18.2655 16.6521 17.9451 16.9725L15.6245 19.2924L18.0412 24.7198L22.5846 26.2535L24.9049 23.9331C25.2253 23.6127 25.2253 23.0936 24.9049 22.7732Z" fill="#5BC980"/>
<path d="M22.5858 26.2455L22.5366 26.2947C21.0049 27.8494 18.5489 28.5307 16.2202 27.5251C12.3647 25.7861 9.32959 23.522 6.91782 21.0775C3.83355 17.9768 1.81548 14.6134 0.519436 11.808C-0.481345 9.65879 -0.0055638 7.08301 1.68433 5.39311L1.70063 5.37671L8.65699 12.3331L7.95141 13.0549C8.80459 14.4986 9.83819 15.8112 11.0194 16.976C12.1843 18.1573 13.4803 19.1581 14.9078 20.0112L15.6296 19.2893L22.5858 26.2455Z" fill="#5BC980"/>
<path d="M22.586 26.2454L22.5367 26.2946C21.005 27.8493 18.5491 28.5306 16.2204 27.525C12.3648 25.786 9.32974 23.5219 6.91797 21.0774L11.0195 16.9758C12.1844 18.1571 13.4805 19.1579 14.9079 20.011L15.6298 19.2892L22.586 26.2454Z" fill="#00AB5E"/>
<path d="M28 12.3057C28 12.765 27.6391 13.126 27.1797 13.126C26.7203 13.126 26.3594 12.765 26.3594 12.3057C26.3594 9.36889 25.1618 6.69467 23.2258 4.77514C21.3062 2.83926 18.632 1.6416 15.6953 1.6416C15.2359 1.6416 14.875 1.28061 14.875 0.821289C14.875 0.361859 15.2359 0.000976562 15.6953 0.000976562C19.0914 0.000976562 22.1594 1.37905 24.3906 3.61035C26.6218 5.8416 28 8.90957 28 12.3057Z" fill="#25D9F8"/>
<path d="M24.7188 12.3057C24.7188 12.765 24.3579 13.126 23.8984 13.126C23.439 13.126 23.0781 12.765 23.0781 12.3057C23.0781 10.2713 22.2578 8.43379 20.9125 7.08848C19.5672 5.74316 17.7297 4.92285 15.6953 4.92285C15.2359 4.92285 14.875 4.56186 14.875 4.10254C14.875 3.64311 15.2359 3.28223 15.6953 3.28223C18.1891 3.28223 20.4367 4.29941 22.0773 5.92363C23.7016 7.56426 24.7188 9.81191 24.7188 12.3057Z" fill="#25D9F8"/>
<path d="M21.4375 12.3057C21.4375 12.765 21.0766 13.126 20.6172 13.126C20.1578 13.126 19.7969 12.765 19.7969 12.3057C19.7969 11.1736 19.3374 10.14 18.5993 9.4017C17.861 8.66342 16.8273 8.2041 15.6953 8.2041C15.2359 8.2041 14.875 7.84311 14.875 7.38379C14.875 6.92436 15.2359 6.56348 15.6953 6.56348C17.2704 6.56348 18.7141 7.20332 19.7476 8.25327C20.7977 9.28686 21.4375 10.7307 21.4375 12.3057ZM18.1562 12.3057C18.1562 12.765 17.7954 13.126 17.3359 13.126C16.8765 13.126 16.5156 12.765 16.5156 12.3057C16.5156 12.076 16.4172 11.8791 16.2859 11.715C16.1219 11.5837 15.9251 11.4854 15.6953 11.4854C15.2359 11.4854 14.875 11.1244 14.875 10.665C14.875 10.2056 15.2359 9.84473 15.6953 9.84473C16.3843 9.84473 16.9914 10.1236 17.4344 10.5666C17.8774 11.0095 18.1562 11.6165 18.1562 12.3057Z" fill="#25D9F8"/>
<path d="M17.4346 10.5665C17.8776 11.0095 18.1564 11.6165 18.1564 12.3056C18.1564 12.7649 17.7956 13.1259 17.3361 13.1259C16.8767 13.1259 16.5158 12.7649 16.5158 12.3056C16.5158 12.0759 16.4174 11.879 16.2861 11.715L17.4346 10.5665ZM19.7478 8.25321C20.7978 9.28681 21.4377 10.7306 21.4377 12.3056C21.4377 12.7649 21.0768 13.1259 20.6174 13.1259C20.158 13.1259 19.7971 12.7649 19.7971 12.3056C19.7971 11.1736 19.3376 10.14 18.5995 9.40165L19.7478 8.25321ZM22.0775 5.92358C23.7018 7.5642 24.7189 9.81186 24.7189 12.3056C24.7189 12.7649 24.3581 13.1259 23.8986 13.1259C23.4392 13.1259 23.0783 12.7649 23.0783 12.3056C23.0783 10.2712 22.258 8.43373 20.9127 7.08842L22.0775 5.92358ZM28.0002 12.3056C28.0002 12.7649 27.6393 13.1259 27.1799 13.1259C26.7205 13.1259 26.3596 12.7649 26.3596 12.3056C26.3596 9.36884 25.162 6.69462 23.226 4.77509L24.3908 3.61035C26.622 5.84155 28.0002 8.90952 28.0002 12.3056Z" fill="#00C0F1"/>
</g>
<defs>
<clipPath id="clip0_1_4987">
<rect width="28" height="28" fill="white"/>
</clipPath>
</defs>
</svg>
