<svg width="20" height="16" viewBox="0 0 20 16" fill="none" xmlns="http://www.w3.org/2000/svg">
<path d="M19 0.666748H1C0.448555 0.666748 0 1.1153 0 1.66675V14.3334C0 14.8849 0.448555 15.3334 1 15.3334H19C19.5514 15.3334 20 14.8849 20 14.3334V1.66675C20 1.1153 19.5514 0.666748 19 0.666748ZM1 14.6667C0.81625 14.6667 0.66668 14.5172 0.66668 14.3334V10.1982L3.76711 7.09757C3.89242 6.97062 4.10598 6.96897 4.23457 7.09921L7.52922 10.3908L3.25199 14.6667H1ZM19.3333 14.3334C19.3333 14.5171 19.1838 14.6667 19 14.6667H4.19484L14.1004 4.76421C14.2257 4.63726 14.4395 4.63562 14.5677 4.76585L19.3334 9.52827L19.3333 14.3334ZM19.3333 8.58562L15.0405 4.29581C14.6626 3.91331 14.0026 3.91495 13.6276 4.29417L8.00062 9.91952L4.70723 6.62917C4.3293 6.24667 3.6693 6.24815 3.2943 6.62772L0.66668 9.25546V1.66675C0.66668 1.483 0.81625 1.33343 1 1.33343H19C19.1838 1.33343 19.3333 1.483 19.3333 1.66675V8.58562Z" fill="#7D7D7D"/>
<path d="M8.3335 3C7.23064 3 6.3335 3.89715 6.3335 5C6.3335 6.10285 7.23064 7 8.3335 7C9.43635 7 10.3335 6.10285 10.3335 5C10.3335 3.89715 9.43639 3 8.3335 3ZM8.3335 6.33332C7.5983 6.33332 7.00018 5.73516 7.00018 5C7.00018 4.26484 7.5983 3.66668 8.3335 3.66668C9.06869 3.66668 9.66682 4.26484 9.66682 5C9.66682 5.73516 9.06869 6.33332 8.3335 6.33332Z" fill="#7D7D7D"/>
</svg>
