<svg width="56" height="56" viewBox="0 0 56 56" fill="none" xmlns="http://www.w3.org/2000/svg">
<g clip-path="url(#clip0_1_4978)">
<path fill-rule="evenodd" clip-rule="evenodd" d="M27.9834 44.2553C-22.4068 -14.7628 78.3736 -14.7628 27.9834 44.2553V44.2553Z" fill="#FF4A4A"/>
<path d="M27.9838 18.2401C30.8828 18.2401 33.2328 15.8901 33.2328 12.9912C33.2328 10.0922 30.8828 7.74219 27.9838 7.74219C25.0849 7.74219 22.7349 10.0922 22.7349 12.9912C22.7349 15.8901 25.0849 18.2401 27.9838 18.2401Z" fill="white"/>
<path fill-rule="evenodd" clip-rule="evenodd" d="M10.0387 32.5107H19.4212C21.5864 36.1194 24.375 40.0233 27.9836 44.2553C31.5923 40.0233 34.4136 36.1194 36.5788 32.5107H45.9286C48.061 32.5107 49.57 34.2495 49.7997 36.3491L51.5056 52.1288C51.7352 54.2284 49.7997 55.9999 47.6673 55.9999H8.33277C6.20038 55.9999 4.23201 54.2284 4.46165 52.1288L6.20038 36.3491C6.43002 34.2495 7.9391 32.5107 10.0387 32.5107Z" fill="#44C868"/>
<path fill-rule="evenodd" clip-rule="evenodd" d="M50.2588 40.6794L51.0462 47.7984H38.6783L40.8435 55.9999H33.4949L31.2969 47.7984H4.95361L5.70815 40.6794H25.0966C26.0151 41.8605 26.9665 43.0415 27.9835 44.2553C29.0333 43.0415 29.9847 41.8605 30.9032 40.6794H50.2588Z" fill="#FFBB24"/>
<path fill-rule="evenodd" clip-rule="evenodd" d="M33.495 55.9999L31.297 47.7983H4.95375L4.46165 52.1287C4.23201 54.2283 6.20038 55.9999 8.33277 55.9999H33.495Z" fill="#1EA4E9"/>
</g>
<defs>
<clipPath id="clip0_1_4978">
<rect width="56" height="56" fill="white"/>
</clipPath>
</defs>
</svg>
