<svg width="40" height="40" viewBox="0 0 40 40" fill="none" xmlns="http://www.w3.org/2000/svg">
<rect width="40" height="40" rx="20" fill="#7C0631"/>
<g clip-path="url(#clip0_1_2049)">
<path d="M25.252 20.2546V18.4785C25.252 15.8875 23.5297 13.6914 21.17 12.9741V12.1699C21.17 11.2491 20.4209 10.5 19.5001 10.5C18.5793 10.5 17.8301 11.2491 17.8301 12.1699V12.9741C15.4704 13.6914 13.7481 15.8874 13.7481 18.4785V20.2546C13.7481 22.5306 12.8806 24.6888 11.3053 26.3315C11.2298 26.4103 11.1791 26.5095 11.1595 26.6168C11.1398 26.7241 11.1522 26.8349 11.195 26.9352C11.2378 27.0356 11.3092 27.1211 11.4002 27.1813C11.4913 27.2414 11.598 27.2735 11.7071 27.2734H16.7729C17.0314 28.5423 18.156 29.5 19.5001 29.5C20.8442 29.5 21.9687 28.5423 22.2273 27.2734H27.293C27.4021 27.2734 27.5088 27.2414 27.5999 27.1812C27.6909 27.1211 27.7623 27.0356 27.8051 26.9352C27.8479 26.8348 27.8602 26.7241 27.8406 26.6168C27.821 26.5095 27.7703 26.4103 27.6948 26.3315C26.1196 24.6888 25.252 22.5306 25.252 20.2546ZM18.9434 12.1699C18.9434 11.863 19.1931 11.6133 19.5001 11.6133C19.807 11.6133 20.0567 11.863 20.0567 12.1699V12.7536C19.8735 12.7359 19.6878 12.7266 19.5001 12.7266C19.3123 12.7266 19.1266 12.7359 18.9434 12.7536V12.1699ZM19.5001 28.3867C18.7744 28.3867 18.1557 27.9213 17.9259 27.2734H21.0742C20.8445 27.9213 20.2257 28.3867 19.5001 28.3867ZM12.9068 26.1602C14.1745 24.4608 14.8614 22.4044 14.8614 20.2546V18.4785C14.8614 15.9208 16.9423 13.8398 19.5001 13.8398C22.0578 13.8398 24.1387 15.9208 24.1387 18.4785V20.2546C24.1387 22.4044 24.8256 24.4608 26.0933 26.1602H12.9068ZM26.7364 18.4785C26.7364 18.7859 26.9856 19.0352 27.293 19.0352C27.6005 19.0352 27.8497 18.7859 27.8497 18.4785C27.8497 16.2482 26.9812 14.1515 25.4041 12.5744C25.1868 12.3571 24.8343 12.357 24.6169 12.5744C24.3995 12.7918 24.3995 13.1442 24.6169 13.3616C25.9837 14.7284 26.7364 16.5456 26.7364 18.4785ZM11.7071 19.0352C12.0145 19.0352 12.2637 18.7859 12.2637 18.4785C12.2637 16.5456 13.0165 14.7284 14.3832 13.3617C14.6006 13.1443 14.6006 12.7918 14.3832 12.5745C14.1659 12.3571 13.8134 12.3571 13.596 12.5745C12.019 14.1515 11.1505 16.2482 11.1505 18.4785C11.1505 18.7859 11.3997 19.0352 11.7071 19.0352Z" fill="white"/>
</g>
<defs>
<clipPath id="clip0_1_2049">
<rect width="19" height="19" fill="white" transform="translate(10 10.5)"/>
</clipPath>
</defs>
</svg>
