<svg width="19" height="20" viewBox="0 0 19 20" fill="none" xmlns="http://www.w3.org/2000/svg">
<g clip-path="url(#clip0_1_2050)">
<path d="M15.252 10.2546V8.47852C15.252 5.88747 13.5297 3.69137 11.17 2.97408V2.16992C11.17 1.24913 10.4209 0.5 9.50007 0.5C8.57927 0.5 7.83015 1.24913 7.83015 2.16992V2.97408C5.47036 3.69137 3.74811 5.88743 3.74811 8.47852V10.2546C3.74811 12.5306 2.88057 14.6888 1.30532 16.3315C1.22979 16.4103 1.17906 16.5095 1.15945 16.6168C1.13984 16.7241 1.15221 16.8349 1.19502 16.9352C1.23783 17.0356 1.3092 17.1211 1.40024 17.1813C1.49128 17.2414 1.59799 17.2735 1.7071 17.2734H6.77286C7.03144 18.5423 8.156 19.5 9.50007 19.5C10.8442 19.5 11.9687 18.5423 12.2273 17.2734H17.293C17.4021 17.2734 17.5088 17.2414 17.5999 17.1812C17.6909 17.1211 17.7623 17.0356 17.8051 16.9352C17.8479 16.8348 17.8602 16.7241 17.8406 16.6168C17.821 16.5095 17.7703 16.4103 17.6948 16.3315C16.1196 14.6888 15.252 12.5306 15.252 10.2546ZM8.94343 2.16992C8.94343 1.86299 9.19314 1.61328 9.50007 1.61328C9.807 1.61328 10.0567 1.86299 10.0567 2.16992V2.75358C9.8735 2.73591 9.68784 2.72656 9.50007 2.72656C9.31229 2.72656 9.12664 2.73591 8.94343 2.75358V2.16992ZM9.50007 18.3867C8.77439 18.3867 8.15567 17.9213 7.92589 17.2734H11.0742C10.8445 17.9213 10.2257 18.3867 9.50007 18.3867ZM2.90684 16.1602C4.17454 14.4608 4.8614 12.4044 4.8614 10.2546V8.47852C4.8614 5.92075 6.9423 3.83984 9.50007 3.83984C12.0578 3.83984 14.1387 5.92075 14.1387 8.47852V10.2546C14.1387 12.4044 14.8256 14.4608 16.0933 16.1602H2.90684ZM16.7364 8.47852C16.7364 8.78593 16.9856 9.03516 17.293 9.03516C17.6005 9.03516 17.8497 8.78593 17.8497 8.47852C17.8497 6.24824 16.9812 4.15145 15.4041 2.57441C15.1868 2.35706 14.8343 2.35703 14.6169 2.57441C14.3995 2.7918 14.3995 3.14423 14.6169 3.36162C15.9837 4.72839 16.7364 6.5456 16.7364 8.47852ZM1.7071 9.03516C2.01451 9.03516 2.26374 8.78593 2.26374 8.47852C2.26374 6.54564 3.01647 4.72843 4.3832 3.36165C4.60059 3.14427 4.60059 2.79184 4.3832 2.57445C4.16585 2.35706 3.81339 2.35706 3.596 2.57445C2.01897 4.15149 1.15046 6.24824 1.15046 8.47852C1.15046 8.78593 1.39968 9.03516 1.7071 9.03516Z" fill="white"/>
</g>
<defs>
<clipPath id="clip0_1_2050">
<rect width="19" height="19" fill="white" transform="translate(0 0.5)"/>
</clipPath>
</defs>
</svg>
